<svg id="Layer_1" data-name="Layer 1" xmlns="http://www.w3.org/2000/svg" xmlns:xlink="http://www.w3.org/1999/xlink" viewBox="0 0 338 100"><defs><style>.cls-1{fill:none;}.cls-2{clip-path:url(#clip-path);}.cls-3{fill:#231f20;}.cls-4{fill:#f8951d;}.cls-5{fill:#f78e1e;}</style><clipPath id="clip-path"><rect class="cls-1" x="22.53" y="19.29" width="292.93" height="61.42"/></clipPath></defs><title>Artboard 4</title><g class="cls-2"><path class="cls-3" d="M160.87,55.5H168c11.28,0,13.7-6.45,13.7-14.68S179.23,26.14,168,26.14h-7.08V55.5Zm-7.2-35.23h17c12.66,0,18.13,9.21,18.13,20.55s-5.47,20.55-18.13,20.55h-17V20.27Z"/><path class="cls-3" d="M199.67,40.82c0,7.88,3.68,15.66,12.49,15.66s12.49-7.78,12.49-15.66S221,25.16,212.16,25.16s-12.49,7.77-12.49,15.66Zm32.18,0c0,11.74-7.37,21.53-19.69,21.53s-19.69-9.79-19.69-21.53,7.37-21.53,19.69-21.53,19.69,9.79,19.69,21.53Z"/></g><polygon class="cls-3" points="236.46 20.27 243.65 20.27 243.65 61.37 236.46 61.37 236.46 20.27 236.46 20.27"/><g class="cls-2"><polygon class="cls-3" points="247.18 20.27 280.45 20.27 280.45 26.49 267.38 26.49 267.38 61.37 260.19 61.37 260.19 26.49 247.18 26.49 247.18 20.27 247.18 20.27"/><polygon class="cls-3" points="282.2 20.27 315.47 20.27 315.47 26.49 302.4 26.49 302.4 61.37 295.21 61.37 295.21 26.49 282.2 26.49 282.2 20.27 282.2 20.27"/></g><polygon class="cls-3" points="22.57 69.08 24.99 69.08 24.99 78.35 22.57 78.35 22.57 69.08 22.57 69.08"/><path class="cls-3" d="M26.31,71.61h2.14v.92h0a2.55,2.55,0,0,1,2.11-1.11C32.84,71.42,33,73.05,33,74v4.32H30.81V75.09c0-.92.11-1.86-1.1-1.86-.83,0-1.19.71-1.19,1.44v3.68H26.31V71.61Z"/><path class="cls-3" d="M34.71,73H33.64V71.61h1.07c0-1.93.67-2.53,2.55-2.53.35,0,.72,0,1.07,0v1.56a4.22,4.22,0,0,0-.6,0c-.51,0-.82.06-.82.67v.3h1.33V73H36.91v5.31h-2.2V73Z"/><path class="cls-3" d="M42,76.86c1,0,1.35-1,1.35-1.87S43,73.1,42,73.1s-1.33,1-1.33,1.89S41,76.86,42,76.86Zm0-5.44A3.56,3.56,0,1,1,38.44,75,3.45,3.45,0,0,1,42,71.42Z"/><path class="cls-3" d="M46.51,71.61h2.14v1.18h0a2,2,0,0,1,2-1.31,2.31,2.31,0,0,1,.52.06v2a3,3,0,0,0-.84-.13A1.55,1.55,0,0,0,48.72,75v3.34H46.51V71.61Z"/><path class="cls-3" d="M51.7,71.61h2.14v.92h0a2.24,2.24,0,0,1,1.93-1.11,1.93,1.93,0,0,1,2,1.09,2.46,2.46,0,0,1,2.1-1.09c2.15,0,2.38,1.62,2.38,2.9v4H60v-4c0-.73-.35-1.16-.92-1.16-1,0-1,.73-1,1.82v3.3h-2.2V74.52c0-.79-.24-1.29-.83-1.29-.8,0-1.13.46-1.13,1.83v3.29H51.7V71.61Z"/><path class="cls-3" d="M66.22,77.18c1,0,1.4-.6,1.35-2a5.89,5.89,0,0,1-1.36.37c-.5.11-.91.32-.91.85s.43.77.92.77Zm-2.86-3.49a2.07,2.07,0,0,1,1.06-1.8,4.38,4.38,0,0,1,2.14-.47c1.59,0,3.14.35,3.14,2.26v2.94A3.93,3.93,0,0,0,70,78.35H67.74a2.35,2.35,0,0,1-.13-.64,3,3,0,0,1-2.22.83c-1.29,0-2.3-.65-2.3-2,0-2.19,2.39-2,3.92-2.33.38-.08.59-.21.59-.62s-.61-.7-1.07-.7a1,1,0,0,0-1.1.84Z"/><path class="cls-3" d="M75,73H73.59V76.1c0,.53.31.65.79.65l.57,0v1.62c-.4,0-.8.06-1.21.06-1.88,0-2.36-.54-2.36-2.37V73H70.27V71.61h1.11v-2h2.21v2H75V73Z"/><path class="cls-3" d="M75.76,71.61H78v6.74h-2.2V71.61Zm2.2-.84h-2.2V69.08H78v1.69Z"/><path class="cls-3" d="M82.48,76.86c1,0,1.35-1,1.35-1.87s-.33-1.89-1.35-1.89-1.34,1-1.34,1.89.31,1.87,1.34,1.87Zm0-5.44A3.56,3.56,0,1,1,78.93,75a3.45,3.45,0,0,1,3.55-3.57Z"/><path class="cls-3" d="M86.93,71.61h2.14v.92h0a2.57,2.57,0,0,1,2.12-1.11c2.24,0,2.43,1.63,2.43,2.61v4.32H91.43V75.09c0-.92.1-1.86-1.1-1.86-.83,0-1.2.71-1.2,1.44v3.68h-2.2V71.61Z"/><polygon class="cls-3" points="106.1 71.16 103.34 71.16 103.34 78.35 100.92 78.35 100.92 71.16 98.16 71.16 98.16 69.08 106.1 69.08 106.1 71.16 106.1 71.16"/><path class="cls-3" d="M110,74.29a1.36,1.36,0,0,0-1.31-1.38,1.46,1.46,0,0,0-1.42,1.38Zm-2.73,1.23a1.44,1.44,0,0,0,1.5,1.53,1.33,1.33,0,0,0,1.26-.74h2.06a3.18,3.18,0,0,1-3.34,2.23A3.38,3.38,0,0,1,105.05,75a3.53,3.53,0,0,1,3.63-3.54c2.42,0,3.62,1.81,3.52,4.1Z"/><path class="cls-3" d="M117.43,74.08a1,1,0,0,0-1.08-1c-1.23,0-1.43,1.06-1.43,2s.38,1.77,1.31,1.77a1.18,1.18,0,0,0,1.26-1.16h2.15a3.17,3.17,0,0,1-3.39,2.84,3.35,3.35,0,0,1-3.53-3.45,3.41,3.41,0,0,1,3.53-3.67,3,3,0,0,1,3.32,2.66Z"/><path class="cls-3" d="M120.48,69.08h2.2v3.45h0a2.36,2.36,0,0,1,2.05-1.11c2.24,0,2.43,1.63,2.43,2.61v4.32H125V75.09c0-.92.1-1.86-1.1-1.86-.83,0-1.2.71-1.2,1.44v3.68h-2.2V69.08Z"/><path class="cls-3" d="M128.39,71.61h2.14v.92h0a2.55,2.55,0,0,1,2.11-1.11c2.25,0,2.43,1.63,2.43,2.61v4.32h-2.21V75.09c0-.92.11-1.86-1.1-1.86-.83,0-1.19.71-1.19,1.44v3.68h-2.21V71.61Z"/><path class="cls-3" d="M139.52,76.86c1,0,1.35-1,1.35-1.87s-.32-1.89-1.35-1.89-1.33,1-1.33,1.89.31,1.87,1.33,1.87Zm0-5.44A3.56,3.56,0,1,1,136,75a3.45,3.45,0,0,1,3.54-3.57Z"/><polygon class="cls-3" points="144.05 69.08 146.26 69.08 146.26 78.35 144.05 78.35 144.05 69.08 144.05 69.08"/><path class="cls-3" d="M150.77,76.86c1,0,1.35-1,1.35-1.87s-.32-1.89-1.35-1.89-1.34,1-1.34,1.89.32,1.87,1.34,1.87Zm0-5.44A3.56,3.56,0,1,1,147.23,75a3.45,3.45,0,0,1,3.54-3.57Z"/><path class="cls-3" d="M158.32,73.1c-1,0-1.28.86-1.28,1.69s.36,1.58,1.27,1.58,1.34-.72,1.34-1.56-.34-1.71-1.33-1.71Zm3.42,4.43c0,1.1-.21,3.18-3.37,3.18-1.57,0-3.05-.35-3.31-2.15h2.21a.71.71,0,0,0,.38.58,1.77,1.77,0,0,0,.8.14c1.05,0,1.16-.74,1.16-1.57v-.63h0a2.13,2.13,0,0,1-1.79,1c-2,0-3-1.45-3-3.35a3,3,0,0,1,3-3.29,2,2,0,0,1,1.8,1h0v-.85h2.12v5.92Z"/><path class="cls-3" d="M166.56,78.94c-.53,1.48-1.32,1.67-2.82,1.67h-1v-1.8h.76c.51,0,.88-.28.88-.75a9.15,9.15,0,0,0-.55-1.76l-1.74-4.69h2.33L165.67,76h0L167,71.61h2.26l-2.66,7.33Z"/><path class="cls-3" d="M177.87,71.16a.75.75,0,0,0-1.5,0c0,.51.36.81.65,1.17.45-.27.85-.58.85-1.14Zm-1.54,3.31c-.45.2-1.08.66-1.08,1.22a1.16,1.16,0,0,0,1.22,1.06,2.17,2.17,0,0,0,1.24-.66l-1.38-1.62Zm2.54,3.1a3.94,3.94,0,0,1-2.66,1,2.9,2.9,0,0,1-3.09-2.83,3.1,3.1,0,0,1,2.11-2.7,2.62,2.62,0,0,1-.82-1.77,2.5,2.5,0,0,1,2.65-2.35,2.45,2.45,0,0,1,2.62,2.4,2.53,2.53,0,0,1-1.59,2.29l1,1.16a2,2,0,0,0,.34-.91h1.9a3.93,3.93,0,0,1-1,2.26l2,2.26h-2.69l-.65-.78Z"/><polygon class="cls-3" points="193.79 71.16 191.03 71.16 191.03 78.35 188.62 78.35 188.62 71.16 185.85 71.16 185.85 69.08 193.79 69.08 193.79 71.16 193.79 71.16"/><path class="cls-3" d="M197.69,74.29a1.37,1.37,0,0,0-1.32-1.38A1.46,1.46,0,0,0,195,74.29ZM195,75.52a1.44,1.44,0,0,0,1.5,1.53,1.33,1.33,0,0,0,1.26-.74h2.06a3.18,3.18,0,0,1-3.34,2.23A3.38,3.38,0,0,1,192.74,75a3.53,3.53,0,0,1,3.63-3.54c2.42,0,3.63,1.81,3.52,4.1Z"/><polygon class="cls-3" points="200.81 69.08 203.02 69.08 203.02 78.35 200.81 78.35 200.81 69.08 200.81 69.08"/><path class="cls-3" d="M208.93,74.29a1.36,1.36,0,0,0-1.31-1.38,1.46,1.46,0,0,0-1.42,1.38Zm-2.73,1.23a1.43,1.43,0,0,0,1.5,1.53,1.33,1.33,0,0,0,1.26-.74H211a3.18,3.18,0,0,1-3.34,2.23A3.38,3.38,0,0,1,204,75a3.53,3.53,0,0,1,3.63-3.54c2.42,0,3.62,1.81,3.52,4.1Z"/><path class="cls-3" d="M216.37,74.08a1,1,0,0,0-1.08-1c-1.23,0-1.43,1.06-1.43,2s.38,1.77,1.31,1.77a1.18,1.18,0,0,0,1.26-1.16h2.14a3.15,3.15,0,0,1-3.38,2.84,3.35,3.35,0,0,1-3.53-3.45,3.41,3.41,0,0,1,3.53-3.67,3,3,0,0,1,3.32,2.66Z"/><path class="cls-3" d="M222.63,76.86c1,0,1.35-1,1.35-1.87s-.32-1.89-1.35-1.89-1.33,1-1.33,1.89.31,1.87,1.33,1.87Zm0-5.44A3.56,3.56,0,1,1,219.09,75a3.45,3.45,0,0,1,3.54-3.57Z"/><path class="cls-3" d="M227.08,71.61h2.14v.92h0a2.25,2.25,0,0,1,1.93-1.11,1.93,1.93,0,0,1,2,1.09,2.47,2.47,0,0,1,2.11-1.09c2.14,0,2.37,1.62,2.37,2.9v4h-2.2v-4c0-.73-.36-1.16-.93-1.16-.94,0-1,.73-1,1.82v3.3h-2.21V74.52c0-.79-.23-1.29-.83-1.29-.79,0-1.13.46-1.13,1.83v3.29h-2.21V71.61Z"/><path class="cls-3" d="M238.84,71.61H241v.92h0a2.24,2.24,0,0,1,1.93-1.11,1.94,1.94,0,0,1,2,1.09,2.44,2.44,0,0,1,2.1-1.09c2.14,0,2.38,1.62,2.38,2.9v4h-2.21v-4c0-.73-.35-1.16-.92-1.16-.95,0-1,.73-1,1.82v3.3H243V74.52c0-.79-.23-1.29-.83-1.29-.79,0-1.13.46-1.13,1.83v3.29h-2.2V71.61Z"/><path class="cls-3" d="M257.29,78.35h-2.14v-.92h0a2.49,2.49,0,0,1-2.05,1.11c-1.93,0-2.49-1.11-2.49-2.88v-4h2.21v3.91c0,.89.39,1.21,1.09,1.21.48,0,1.2-.32,1.2-1.51V71.61h2.21v6.74Z"/><path class="cls-3" d="M258.51,71.61h2.14v.92h0a2.57,2.57,0,0,1,2.12-1.11c2.24,0,2.43,1.63,2.43,2.61v4.32H263V75.09c0-.92.1-1.86-1.1-1.86-.83,0-1.2.71-1.2,1.44v3.68h-2.2V71.61Z"/><path class="cls-3" d="M266.5,71.61h2.2v6.74h-2.2V71.61Zm2.2-.84h-2.2V69.08h2.2v1.69Z"/><path class="cls-3" d="M274.39,74.08a1.05,1.05,0,0,0-1.08-1c-1.23,0-1.43,1.06-1.43,2s.38,1.77,1.31,1.77a1.18,1.18,0,0,0,1.26-1.16h2.14a3.15,3.15,0,0,1-3.38,2.84,3.35,3.35,0,0,1-3.53-3.45,3.41,3.41,0,0,1,3.53-3.67,3,3,0,0,1,3.32,2.66Z"/><path class="cls-3" d="M280.2,77.18c1.05,0,1.4-.6,1.35-2a5.89,5.89,0,0,1-1.36.37c-.5.11-.91.32-.91.85s.43.77.92.77Zm-2.85-3.49a2,2,0,0,1,1-1.8,4.38,4.38,0,0,1,2.14-.47c1.59,0,3.14.35,3.14,2.26v2.94a3.93,3.93,0,0,0,.26,1.73h-2.22a2.35,2.35,0,0,1-.13-.64,3,3,0,0,1-2.22.83c-1.29,0-2.3-.65-2.3-2,0-2.19,2.39-2,3.92-2.33.38-.08.59-.21.59-.62s-.61-.7-1.07-.7a1,1,0,0,0-1.1.84Z"/><path class="cls-3" d="M288.93,73h-1.36V76.1c0,.53.31.65.79.65l.57,0v1.62c-.4,0-.8.06-1.21.06-1.88,0-2.36-.54-2.36-2.37V73h-1.11V71.61h1.11v-2h2.21v2h1.36V73Z"/><path class="cls-3" d="M289.74,71.61h2.2v6.74h-2.2V71.61Zm2.2-.84h-2.2V69.08h2.2v1.69Z"/><path class="cls-3" d="M296.46,76.86c1,0,1.35-1,1.35-1.87s-.33-1.89-1.35-1.89-1.34,1-1.34,1.89.31,1.87,1.34,1.87Zm0-5.44A3.56,3.56,0,1,1,292.91,75a3.45,3.45,0,0,1,3.55-3.57Z"/><path class="cls-3" d="M300.91,71.61h2.14v.92h0a2.57,2.57,0,0,1,2.12-1.11c2.24,0,2.43,1.63,2.43,2.61v4.32h-2.21V75.09c0-.92.1-1.86-1.1-1.86-.83,0-1.2.71-1.2,1.44v3.68h-2.2V71.61Z"/><path class="cls-3" d="M310.53,76.13a.9.9,0,0,0,.37.75,1.32,1.32,0,0,0,.81.24c.43,0,1-.19,1-.72s-.69-.62-1.08-.71c-1.38-.35-3.12-.39-3.12-2.21,0-1.62,1.75-2.06,3.07-2.06,1.48,0,3,.43,3.1,2.18h-2a.65.65,0,0,0-.29-.59,1.37,1.37,0,0,0-.7-.16c-.36,0-.95,0-.95.5,0,.64,1.48.75,2.49,1A1.92,1.92,0,0,1,315,76.14c0,1.81-1.72,2.4-3.23,2.4s-3.23-.53-3.3-2.41Z"/><path class="cls-4" d="M138.73,37a.72.72,0,0,1-.15.11l.21,1.13h2.64L138.73,37Z"/><path class="cls-4" d="M123.34,56.87a.9.9,0,0,1,.15-.46L110.89,41a1.4,1.4,0,0,1-.6.15l-.23,0-5,12.78,6,6,12.34-3.05Z"/><path class="cls-4" d="M138.87,36.12a.69.69,0,0,1,.08.32h0v.06l3.75,1.72h.58l2.57-2.54V28.92l-7,7.2Z"/><path class="cls-4" d="M124,56.05V46h-3.81V35.68H124V31.93a1.89,1.89,0,0,1-1.13-.59l-11.34,8a1.32,1.32,0,0,1-.2,1.34l12.6,15.39.07,0Z"/><path class="cls-4" d="M132.9,20.92l5.3,14.76a.66.66,0,0,1,.3.07l7.35-7.59V28l-7.71-7.71h-4.69a1.4,1.4,0,0,1-.55.65Z"/><path class="cls-4" d="M142.49,53.12l3.36-2.6V46l-2.57-2.57h-3.54l1.72,9.3a1.44,1.44,0,0,1,1,.43Z"/><path class="cls-4" d="M138.25,38.22l-.19-1H138l-.72,1Z"/><path class="cls-4" d="M140,54.1a1.43,1.43,0,0,1,.92-1.31l-1.74-9.4h-5.43l-8.83,13a1.4,1.4,0,0,1,.1.16l15-2.4Z"/><path class="cls-4" d="M124.5,31.93v3.75h5.93v2.54h6.22l.92-1.34a.72.72,0,0,1-.14-.44h0v0l-11.58-5.32a1.92,1.92,0,0,1-1.35.86Z"/><polygon class="cls-4" points="130.43 43.39 130.43 45.96 124.5 45.96 124.5 56.04 133.13 43.39 130.43 43.39 130.43 43.39"/><path class="cls-4" d="M97.75,33.66V45.25l7-7V53.17L109.57,41a1.31,1.31,0,0,1-.6-1.1,1.21,1.21,0,0,1,.06-.38L98.17,33.41a.86.86,0,0,1-.42.25Z"/><path class="cls-4" d="M71.92,35.12a.8.8,0,0,1-.48.17.88.88,0,0,1-.32-.07l-5,5.49L74.34,49l10.71-4a1.87,1.87,0,0,1,0-.34,1.62,1.62,0,0,1,.15-.69L71.92,35.12Z"/><path class="cls-4" d="M57.75,31.39v16a2.17,2.17,0,0,1,1.09.42l4.8-5.23V38.25l2.07,2.08,5-5.47a.88.88,0,0,1-.1-.36L58.69,30.7a1.39,1.39,0,0,1-.94.69Z"/><path class="cls-4" d="M63.64,50.09V43.38l-4.41,4.81a2.26,2.26,0,0,1,.57,1.49l3.84.41Z"/><path class="cls-4" d="M58.87,30a.77.77,0,0,1,0,.15L70.8,34a.77.77,0,0,1,.56-.32l2.9-12.23a.88.88,0,0,1-.24-.19L58.79,29.62a1.2,1.2,0,0,1,.08.42Z"/><path class="cls-4" d="M97.05,33.6l-9,10a1.67,1.67,0,0,1,.37,1,1.72,1.72,0,0,1-.26.9l5,4.39,4.13-4.13V33.66l-.17-.06Z"/><path class="cls-4" d="M96.65,33.24a1,1,0,0,1-.15-.51,1,1,0,0,1,.14-.5l-7.31-6.37V28L87,30.34V43a1.71,1.71,0,0,1,.66.25l9-10Z"/><path class="cls-4" d="M98.46,32.73a.83.83,0,0,1,0,.22L109.29,39a1.36,1.36,0,0,1,.44-.35l-3-12.63-2,1.95V22.84l-.16-.16L98.18,32a1,1,0,0,1,.28.69Z"/><path class="cls-4" d="M63.64,50.62l-3.89-.41a2.44,2.44,0,0,1-.48.95l4.37,4.55V50.62Z"/><path class="cls-4" d="M109.74,23l-2.61,2.61,3.11,13h.05a1.36,1.36,0,0,1,.91.37l11.34-8a2,2,0,0,1-.22-.87,2.12,2.12,0,0,1,.11-.62L109.74,23Z"/><path class="cls-4" d="M84.19,33.12l-3.87-3.87-8.09,5a1.1,1.1,0,0,1,0,.18.69.69,0,0,1,0,.2l13.25,8.81a1.66,1.66,0,0,1,1-.52V30.87l-2.24,2.25Z"/><path class="cls-4" d="M85.76,61.09a1.34,1.34,0,0,1,.67-.39V46.28a1.66,1.66,0,0,1-1.19-.83L74.76,49.37l1.72,1.73V55l9.28,6.14Z"/><path class="cls-4" d="M126.15,30a1.71,1.71,0,0,1-.09.55l11.59,5.31,0,0L132.4,21.1l-.21,0h0a1.41,1.41,0,0,1-.61-.15l-6,7.73a1.92,1.92,0,0,1,.55,1.34Z"/><path class="cls-4" d="M33.5,55.84a1.23,1.23,0,0,1-.5-.46L22.53,58.71v.09l2.57,2.58h7.08l1.32-5.54Z"/><path class="cls-4" d="M58.89,51.53a2.25,2.25,0,0,1-2.62.13l-6.7,8.49,1.22,1.23H61.07l2.57-2.58V56.47l-4.75-4.94Z"/><path class="cls-4" d="M34.94,55.53A1.19,1.19,0,0,1,34,56h0l-1.29,5.41h2.66L38,58.8V57l-3-1.5Z"/><path class="cls-4" d="M33.76,53.61V36.14a1.72,1.72,0,0,1-1.21-.86l-8.74,3.07a2.63,2.63,0,0,1,.05.49,2.24,2.24,0,0,1-.66,1.59L33.52,53.69a.75.75,0,0,1,.24-.08Z"/><path class="cls-4" d="M22.53,27.89v8.9a2.25,2.25,0,0,1,1.09,1.06l8.75-3.07a1.53,1.53,0,0,1,0-.3,1.69,1.69,0,0,1,.13-.63l-9.94-6Z"/><path class="cls-4" d="M122.67,29a1.91,1.91,0,0,1,1.57-.83,1.89,1.89,0,0,1,.94.26l6-7.74a1.54,1.54,0,0,1-.23-.37H112.45l-2.32,2.32L122.67,29Z"/><polygon class="cls-4" points="76.48 55.58 76.48 58.8 79.05 61.38 85.24 61.38 76.48 55.58 76.48 55.58"/><path class="cls-4" d="M22.77,40.75a1.34,1.34,0,0,1-.24.12V58.15l10.31-3.28s0-.06,0-.1A1.15,1.15,0,0,1,33.1,54L22.77,40.75Z"/><path class="cls-4" d="M140.86,55.45a1.48,1.48,0,0,1-.76-.83l-15,2.41a1,1,0,0,1-.07.25l4.45,4.1h8.64l2.13-2.13.59-3.8Z"/><path class="cls-4" d="M87.76,45.92a1.68,1.68,0,0,1-.8.36V60.7a1.31,1.31,0,0,1,.92.68h1.45l2.56-2.58V51.1l.82-.82-4.95-4.36Z"/><path class="cls-4" d="M124.69,57.67a.88.88,0,0,1-1.21-.29l-12,3,1,1h16.27l-4-3.71Z"/><path class="cls-4" d="M142.79,53.55a1.63,1.63,0,0,1,.12.59,1.46,1.46,0,0,1-1.45,1.45h-.08l-.48,3,4.95-5V51.19l-3.06,2.36Z"/><path class="cls-4" d="M38,50.2V48.53l.81.81,4-4.27a1,1,0,0,1-.12-.45.93.93,0,0,1,.2-.56L35,35.86a1.83,1.83,0,0,1-.69.28V53.61a1.09,1.09,0,0,1,.34.13L38,50.2Z"/><path class="cls-4" d="M38,56.44V51L35,54.1a1.18,1.18,0,0,1,.2.67.86.86,0,0,1,0,.28L38,56.44Z"/><path class="cls-4" d="M57.35,28.68l.14,0a1.39,1.39,0,0,1,1,.5L73.76,20.8a.93.93,0,0,1,0-.24,1,1,0,0,1,0-.29H66.21l-2.57,2.57-2.57-2.57H54.79l2.56,8.41Z"/><path class="cls-4" d="M32.74,33.4a1.73,1.73,0,0,1,1-.58V20.27H25.1l-2.57,2.57v4.43L32.74,33.4Z"/><path class="cls-4" d="M97,31.87a.9.9,0,0,1,.46-.12,1,1,0,0,1,.24,0l6.48-9.48-2-2H91.89l-2.56,2.57v2.32L97,31.87Z"/><path class="cls-4" d="M75.75,20.56a1,1,0,0,1-1,1L71.87,33.8l.07.05,8-5L79.05,28V22.84l-2.57-2.57H75.7a1,1,0,0,1,0,.29Z"/><path class="cls-4" d="M43.8,43.75,56.36,30.82a1.32,1.32,0,0,1-.25-.78,1.38,1.38,0,0,1,.73-1.21l-2.6-8.56H50.79l-2.57,2.57V33.12L43.8,28.7V43.75Z"/><path class="cls-4" d="M34.29,32.82a1.7,1.7,0,0,1,.76.34l6.84-6.38-6.51-6.51H34.29V32.82Z"/><path class="cls-4" d="M43.27,43.75V28.17l-1-1-6.84,6.39a1.69,1.69,0,0,1,.29.94,1.63,1.63,0,0,1-.35,1l7.91,8.26Z"/><path class="cls-4" d="M57.22,47.41v-16a1.36,1.36,0,0,1-.48-.2L44.24,44.07a.88.88,0,0,1,.2.55s0,0,0,.05l11,4a2.3,2.3,0,0,1,1.8-1.26Z"/><path class="cls-4" d="M55.17,49.7a2.35,2.35,0,0,1,.07-.54l-11-4a.89.89,0,0,1-.71.36h0a.86.86,0,0,1-.39-.09l-4,4.28L49.19,59.78l6.67-8.44a2.28,2.28,0,0,1-.69-1.64Z"/><path class="cls-5" d="M144,21.65h.19a.42.42,0,0,0,.15,0,.24.24,0,0,0,.11-.09.25.25,0,0,0,0-.17.4.4,0,0,0,0-.15.28.28,0,0,0-.1-.09l-.13,0h-.53v.58Zm.13-.82a.74.74,0,0,1,.5.13.5.5,0,0,1,.16.4.47.47,0,0,1-.14.37.56.56,0,0,1-.35.13l.53.83h-.31L144,21.9h-.31v.79h-.29V20.83Zm-1.31,1.46a1.21,1.21,0,0,0,.27.43,1.32,1.32,0,0,0,.42.29,1.34,1.34,0,0,0,1,0,1.22,1.22,0,0,0,.42-.29,1.23,1.23,0,0,0,.28-.43,1.4,1.4,0,0,0,.1-.54,1.39,1.39,0,0,0-.1-.53,1.23,1.23,0,0,0-.28-.43,1.25,1.25,0,0,0-.41-.28,1.32,1.32,0,0,0-1,0,1.19,1.19,0,0,0-.42.28,1.36,1.36,0,0,0-.38,1,1.23,1.23,0,0,0,.09.54Zm-.26-1.17a1.52,1.52,0,0,1,.35-.49,1.58,1.58,0,0,1,.5-.34,1.66,1.66,0,0,1,1.24,0,1.64,1.64,0,0,1,.85.83,1.73,1.73,0,0,1,.13.63,1.56,1.56,0,0,1-.13.64,1.72,1.72,0,0,1-.85.83,1.66,1.66,0,0,1-1.24,0,1.57,1.57,0,0,1-.85-.83,1.62,1.62,0,0,1,0-1.27Z"/></svg>